<svg width="272" height="267" viewBox="0 0 272 267" fill="none" xmlns="http://www.w3.org/2000/svg">
<path d="M130.326 1.99693L130.214 1.50946C134.022 0.640609 137.978 0.640609 141.786 1.50946L141.674 1.99693C143.518 2.41779 145.327 3.0465 147.064 3.88312L151.448 5.99426L151.665 5.54377L160.432 9.76604L160.215 10.2165L168.983 14.4388L169.2 13.9883L177.968 18.2106L177.751 18.6611L186.518 22.8833L186.735 22.4328L195.503 26.6551L195.286 27.1056L204.054 31.3279L204.271 30.8774L213.038 35.0996L212.821 35.5501L221.589 39.7724L221.806 39.3219L230.573 43.5442L230.357 43.9947L234.74 46.1058C236.478 46.9424 238.097 47.9642 239.575 49.1436L239.887 48.7527C242.94 51.1875 245.407 54.2811 247.102 57.7994L246.651 58.0163C247.472 59.7205 248.108 61.5264 248.537 63.4062L249.62 68.1499L250.107 68.0386L252.273 77.526L251.785 77.6372L253.951 87.1246L254.438 87.0133L256.603 96.5007L256.116 96.6119L258.281 106.099L258.769 105.988L260.934 115.475L260.447 115.587L262.612 125.074L263.1 124.963L265.265 134.45L264.778 134.561L266.943 144.049L267.431 143.937L269.596 153.425L269.108 153.536L270.191 158.28C270.62 160.16 270.831 162.062 270.831 163.954L271.331 163.954C271.331 167.859 270.45 171.717 268.756 175.235L268.305 175.018C267.485 176.722 266.469 178.345 265.267 179.853L262.234 183.657L262.624 183.969L256.557 191.577L256.166 191.265L250.099 198.874L250.49 199.185L244.422 206.794L244.031 206.482L237.964 214.09L238.355 214.402L232.288 222.01L231.897 221.698L225.829 229.307L226.22 229.618L220.153 237.227L219.762 236.915L213.694 244.523L214.085 244.835L208.018 252.443L207.627 252.131L204.593 255.936C203.391 257.443 202.035 258.794 200.556 259.974L200.868 260.364C197.814 262.799 194.249 264.516 190.442 265.385L190.331 264.898C188.487 265.318 186.585 265.537 184.657 265.537H179.791V266.037H170.06V265.537H160.328V266.037H150.597V265.537H140.866V266.037H131.134V265.537H121.403V266.037H111.672V265.537H101.94V266.037H92.209V265.537H87.3433C85.4151 265.537 83.5131 265.318 81.669 264.898L81.5577 265.385C77.7506 264.516 74.1856 262.799 71.1325 260.364L71.4442 259.974C69.9653 258.794 68.6088 257.443 67.4066 255.936L64.3729 252.131L63.982 252.443L57.9146 244.835L58.3055 244.523L52.2382 236.915L51.8472 237.227L45.7799 229.618L46.1708 229.307L40.1034 221.698L39.7125 222.01L33.6451 214.402L34.036 214.09L27.9686 206.482L27.5777 206.794L21.5103 199.185L21.9012 198.874L15.8338 191.265L15.4429 191.577L9.37554 183.969L9.76645 183.657L6.73276 179.853C5.53055 178.345 4.5152 176.722 3.69454 175.018L3.24405 175.235C1.54981 171.717 0.669336 167.859 0.669233 163.954L1.16923 163.954C1.16918 162.062 1.37974 160.16 1.80881 158.28L2.89152 153.536L2.40405 153.425L4.56948 143.937L5.05694 144.049L7.22237 134.561L6.7349 134.45L8.90033 124.963L9.38779 125.074L11.5532 115.587L11.0658 115.475L13.2312 105.988L13.7186 106.099L15.8841 96.6119L15.3966 96.5007L17.562 87.0133L18.0495 87.1246L20.2149 77.6372L19.7275 77.526L21.8929 68.0386L22.3803 68.1499L23.4631 63.4062C23.8921 61.5264 24.5281 59.7205 25.3488 58.0163L24.8983 57.7994C26.5928 54.2811 29.0598 51.1875 32.1128 48.7527L32.4246 49.1436C33.9034 47.9642 35.5224 46.9424 37.2597 46.1058L41.6435 43.9946L41.4266 43.5442L50.1942 39.3219L50.4111 39.7724L59.1788 35.5501L58.9618 35.0996L67.7295 30.8774L67.9464 31.3278L76.714 27.1056L76.4971 26.6551L85.2647 22.4328L85.4816 22.8833L94.2493 18.6611L94.0323 18.2106L102.8 13.9883L103.017 14.4388L111.785 10.2165L111.568 9.76603L120.335 5.54377L120.552 5.99425L124.936 3.88312C126.673 3.0465 128.482 2.41779 130.326 1.99693Z" stroke="white" stroke-dasharray="9 9"/>
</svg>
